<svg xmlns="http://www.w3.org/2000/svg" width="1340" height="760" viewBox="0 0 1340 760" font-family="Helvetica Neue, Helvetica, Arial, sans-serif">
<defs><marker id="arrow" viewBox="0 0 10 10" refX="9" refY="5" markerWidth="7" markerHeight="7" orient="auto-start-reverse"><path d="M0,0 L10,5 L0,10 z" fill="#6b6a65"/></marker></defs>
<rect width="100%" height="100%" fill="#fcfcfb"/>
<text x="20" y="34" font-size="20" font-weight="700" fill="#1b1b1a">One chat turn</text>
<text x="20" y="55" font-size="12" fill="#55534e">A plain tool-calling loop: the model picks tools, plain Python functions run them, the loop repeats until it answers.</text>
<rect x="40" y="260" width="1260" height="330" rx="10" fill="#f4fbf8" stroke="#1b9e6f" stroke-opacity="0.35"/>
<text x="54" y="282" font-size="11" font-weight="700" letter-spacing="0.6" fill="#11704d">TOOLS  ·  src/agent_tools.py, each wrapped in @_logged</text>
<polyline points="210,145 260,145" fill="none" stroke="#6b6a65" stroke-width="1.5" stroke-linejoin="round" marker-end="url(#arrow)" marker-start="url(#arrow)"/>
<polyline points="470,145 520,145" fill="none" stroke="#6b6a65" stroke-width="1.5" stroke-linejoin="round" marker-end="url(#arrow)"/>
<polyline points="820,130 900,130" fill="none" stroke="#6b6a65" stroke-width="1.5" stroke-linejoin="round" marker-end="url(#arrow)"/>
<polyline points="900,160 820,160" fill="none" stroke="#6b6a65" stroke-width="1.5" stroke-linejoin="round" marker-end="url(#arrow)"/>
<polyline points="620,200 620,260" fill="none" stroke="#6b6a65" stroke-width="1.5" stroke-linejoin="round" marker-end="url(#arrow)"/>
<polyline points="720,260 720,200" fill="none" stroke="#6b6a65" stroke-width="1.5" stroke-linejoin="round" marker-end="url(#arrow)"/>
<polyline points="295,180 295,630" fill="none" stroke="#6b6a65" stroke-width="1.5" stroke-linejoin="round" marker-end="url(#arrow)"/>
<polyline points="540,200 540,600 790,600 790,630" fill="none" stroke="#6b6a65" stroke-width="1.5" stroke-linejoin="round" marker-end="url(#arrow)"/>
<rect x="40" y="110" width="170" height="70" rx="8" fill="#ffffff" stroke="#55534e" stroke-width="1.5"/>
<text x="125.0" y="142.0" font-size="13" font-weight="700" fill="#1b1b1a" text-anchor="middle">Resident</text>
<text x="125.0" y="159.0" font-size="11" fill="#55534e" text-anchor="middle">chat panel, any view</text>
<rect x="260" y="110" width="210" height="70" rx="8" fill="#e3f5ee" stroke="#1b9e6f" stroke-width="1.5"/>
<text x="365.0" y="142.0" font-size="13" font-weight="700" fill="#1b1b1a" text-anchor="middle">POST /chat</text>
<text x="365.0" y="159.0" font-size="11" fill="#55534e" text-anchor="middle">webapp/main.py</text>
<rect x="520" y="90" width="300" height="110" rx="8" fill="#e3f5ee" stroke="#1b9e6f" stroke-width="1.5"/>
<text x="670.0" y="119.5" font-size="13" font-weight="700" fill="#1b1b1a" text-anchor="middle">run_chat</text>
<text x="670.0" y="136.5" font-size="11" fill="#55534e" text-anchor="middle">src/agent_chat.py</text>
<text x="670.0" y="151.5" font-size="11" fill="#55534e" text-anchor="middle">system prompt + metric names</text>
<text x="670.0" y="166.5" font-size="11" fill="#55534e" text-anchor="middle">+ user id + the area in view</text>
<text x="670.0" y="181.5" font-size="11" fill="#55534e" text-anchor="middle">≤ 4 model rounds</text>
<rect x="900" y="105" width="230" height="80" rx="8" fill="#e6f0fc" stroke="#2a78d6" stroke-width="1.5"/>
<text x="1015.0" y="134.5" font-size="13" font-weight="700" fill="#1b1b1a" text-anchor="middle">Foundation Model API</text>
<text x="1015.0" y="151.5" font-size="11" fill="#55534e" text-anchor="middle">Claude Sonnet</text>
<text x="1015.0" y="166.5" font-size="11" fill="#55534e" text-anchor="middle">OpenAI chat-completions protocol</text>
<rect x="60" y="310" width="225" height="56" rx="8" fill="#e6f0fc" stroke="#2a78d6" stroke-width="1.5"/>
<text x="172.5" y="335.0" font-size="13" font-weight="700" fill="#1b1b1a" text-anchor="middle">get_area_trend</text>
<text x="172.5" y="352.0" font-size="11" fill="#55534e" text-anchor="middle">Lakebase Synced Tables</text>
<rect x="305" y="310" width="225" height="56" rx="8" fill="#e6f0fc" stroke="#2a78d6" stroke-width="1.5"/>
<text x="417.5" y="335.0" font-size="13" font-weight="700" fill="#1b1b1a" text-anchor="middle">get_recent_activity</text>
<text x="417.5" y="352.0" font-size="11" fill="#55534e" text-anchor="middle">silver tables, via SQL</text>
<rect x="550" y="310" width="225" height="56" rx="8" fill="#e6f0fc" stroke="#2a78d6" stroke-width="1.5"/>
<text x="662.5" y="335.0" font-size="13" font-weight="700" fill="#1b1b1a" text-anchor="middle">rank_areas</text>
<text x="662.5" y="352.0" font-size="11" fill="#55534e" text-anchor="middle">all 77 areas at once</text>
<rect x="795" y="310" width="225" height="56" rx="8" fill="#e6f0fc" stroke="#2a78d6" stroke-width="1.5"/>
<text x="907.5" y="335.0" font-size="13" font-weight="700" fill="#1b1b1a" text-anchor="middle">get_leading_indicators</text>
<text x="907.5" y="352.0" font-size="11" fill="#55534e" text-anchor="middle">indicator_lead_lag</text>
<rect x="60" y="390" width="225" height="56" rx="8" fill="#e6f0fc" stroke="#2a78d6" stroke-width="1.5"/>
<text x="172.5" y="415.0" font-size="13" font-weight="700" fill="#1b1b1a" text-anchor="middle">get_area_summary</text>
<text x="172.5" y="432.0" font-size="11" fill="#55534e" text-anchor="middle">area_narratives</text>
<rect x="305" y="390" width="225" height="56" rx="8" fill="#e6f0fc" stroke="#2a78d6" stroke-width="1.5"/>
<text x="417.5" y="415.0" font-size="13" font-weight="700" fill="#1b1b1a" text-anchor="middle">get_next_week_outlook</text>
<text x="417.5" y="432.0" font-size="11" fill="#55534e" text-anchor="middle">outlook_* tables</text>
<rect x="550" y="390" width="225" height="56" rx="8" fill="#e6f0fc" stroke="#2a78d6" stroke-width="1.5"/>
<text x="662.5" y="415.0" font-size="13" font-weight="700" fill="#1b1b1a" text-anchor="middle">get_upcoming_events</text>
<text x="662.5" y="432.0" font-size="11" fill="#55534e" text-anchor="middle">events_upcoming</text>
<rect x="795" y="390" width="225" height="56" rx="8" fill="#e6f0fc" stroke="#2a78d6" stroke-width="1.5"/>
<text x="907.5" y="415.0" font-size="13" font-weight="700" fill="#1b1b1a" text-anchor="middle">search_area_background</text>
<text x="907.5" y="432.0" font-size="11" fill="#55534e" text-anchor="middle">Vector Search, hybrid</text>
<rect x="60" y="470" width="225" height="56" rx="8" fill="#fbefe3" stroke="#c4813f" stroke-width="1.5"/>
<text x="172.5" y="495.0" font-size="13" font-weight="700" fill="#1b1b1a" text-anchor="middle">subscribe_to_area</text>
<text x="172.5" y="512.0" font-size="11" fill="#55534e" text-anchor="middle">write · area_subscriptions</text>
<rect x="305" y="470" width="225" height="56" rx="8" fill="#fbefe3" stroke="#c4813f" stroke-width="1.5"/>
<text x="417.5" y="495.0" font-size="13" font-weight="700" fill="#1b1b1a" text-anchor="middle">log_resident_report</text>
<text x="417.5" y="512.0" font-size="11" fill="#55534e" text-anchor="middle">write · resident_reports</text>
<rect x="1050" y="310" width="230" height="136" rx="8" fill="#ffffff" stroke="#c3c2b7" stroke-width="1.5"/>
<text x="1165.0" y="345.0" font-size="13" font-weight="700" fill="#1b1b1a" text-anchor="middle">Every call</text>
<text x="1165.0" y="362.0" font-size="11" fill="#55534e" text-anchor="middle">logged to tool_invocations</text>
<text x="1165.0" y="377.0" font-size="11" fill="#55534e" text-anchor="middle"></text>
<text x="1165.0" y="392.0" font-size="11" fill="#55534e" text-anchor="middle">results go back to the</text>
<text x="1165.0" y="407.0" font-size="11" fill="#55534e" text-anchor="middle">model as JSON; errors as</text>
<text x="1165.0" y="422.0" font-size="11" fill="#55534e" text-anchor="middle">{ok: false, error}</text>
<rect x="570" y="470" width="440" height="56" rx="8" fill="#ffffff" stroke="#c3c2b7" stroke-width="1.5"/>
<text x="790.0" y="495.0" font-size="13" font-weight="700" fill="#1b1b1a" text-anchor="middle">Writes refresh the UI</text>
<text x="790.0" y="512.0" font-size="11" fill="#55534e" text-anchor="middle">toast + My Areas, through an HX-Trigger header</text>
<rect x="260" y="630" width="300" height="62" rx="8" fill="#f1eefc" stroke="#6f5bd0" stroke-width="1.5"/>
<text x="410.0" y="650.5" font-size="13" font-weight="700" fill="#1b1b1a" text-anchor="middle">chat_turns</text>
<text x="410.0" y="667.5" font-size="11" fill="#55534e" text-anchor="middle">question, tool trajectory, answer,</text>
<text x="410.0" y="682.5" font-size="11" fill="#55534e" text-anchor="middle">latency, thumbs up/down</text>
<rect x="640" y="630" width="300" height="62" rx="8" fill="#e3f5ee" stroke="#1b9e6f" stroke-width="1.5"/>
<text x="790.0" y="658.0" font-size="13" font-weight="700" fill="#1b1b1a" text-anchor="middle">The answer</text>
<text x="790.0" y="675.0" font-size="11" fill="#55534e" text-anchor="middle">Markdown, raw HTML escaped</text>
<rect x="797.67" y="103" width="124.66000000000001" height="17" rx="4" fill="#fcfcfb"/>
<text x="860" y="116" font-size="10.5" fill="#55534e" text-anchor="middle">messages + tool specs</text>
<rect x="800.4" y="169" width="119.2" height="17" rx="4" fill="#fcfcfb"/>
<text x="860" y="182" font-size="10.5" fill="#55534e" text-anchor="middle">tool calls or answer</text>
<rect x="587.7" y="223" width="64.6" height="17" rx="4" fill="#fcfcfb"/>
<text x="620" y="236" font-size="10.5" fill="#55534e" text-anchor="middle">tool calls</text>
<rect x="695.89" y="223" width="48.22" height="17" rx="4" fill="#fcfcfb"/>
<text x="720" y="236" font-size="10.5" fill="#55534e" text-anchor="middle">results</text>
<rect x="273.62" y="601" width="42.76" height="17" rx="4" fill="#fcfcfb"/>
<text x="295" y="614" font-size="10.5" fill="#55534e" text-anchor="middle">logged</text>
<rect x="627.24" y="591" width="75.52" height="17" rx="4" fill="#fcfcfb"/>
<text x="665" y="604" font-size="10.5" fill="#55534e" text-anchor="middle">final answer</text>
</svg>